<?xml version="1.0" encoding="UTF-8" standalone="no"?>
<!-- Created with Inkscape (http://www.inkscape.org/) -->

<svg
   xmlns:dc="http://purl.org/dc/elements/1.1/"
   xmlns:cc="http://creativecommons.org/ns#"
   xmlns:rdf="http://www.w3.org/1999/02/22-rdf-syntax-ns#"
   xmlns:svg="http://www.w3.org/2000/svg"
   xmlns="http://www.w3.org/2000/svg"
   xmlns:inkscape="http://www.inkscape.org/namespaces/inkscape"
   version="1.1"
   width="587.5"
   height="158.75"
   id="svg2"
   xml:space="preserve"><metadata
     id="metadata8"><rdf:RDF><cc:Work
         rdf:about=""><dc:format>image/svg+xml</dc:format><dc:type
           rdf:resource="http://purl.org/dc/dcmitype/StillImage" /></cc:Work></rdf:RDF></metadata><defs
     id="defs6" /><g
     transform="matrix(1.25,0,0,-1.25,0,158.75)"
     id="g10"><g
       transform="scale(0.1,0.1)"
       id="g12"><path
         d="m 5,0.898438 711.953,0 0,944.883002 -711.953,0 L 5,0.898438 z"
         inkscape:connector-curvature="0"
         id="path14"
         style="fill:#7f7f7f;fill-opacity:1;fill-rule:nonzero;stroke:none" /><path
         d="m 800,0.898438 711.953,0 0,1001.599962 -711.953,0 0,-1001.599962 z"
         inkscape:connector-curvature="0"
         id="path16"
         style="fill:#7f7f7f;fill-opacity:1;fill-rule:nonzero;stroke:none" /><path
         d="m 1595,0.898438 711.953,0 0,1071.599962 -711.953,0 0,-1071.599962 z"
         inkscape:connector-curvature="0"
         id="path18"
         style="fill:#7f7f7f;fill-opacity:1;fill-rule:nonzero;stroke:none" /><path
         d="m 2390,0.898438 711.953,0 0,1146.599962 -711.953,0 0,-1146.599962 z"
         inkscape:connector-curvature="0"
         id="path20"
         style="fill:#7f7f7f;fill-opacity:1;fill-rule:nonzero;stroke:none" /><path
         d="m 3185,0.898438 711.953,0 0,1179.099962 -711.953,0 0,-1179.099962 z"
         inkscape:connector-curvature="0"
         id="path22"
         style="fill:#7f7f7f;fill-opacity:1;fill-rule:nonzero;stroke:none" /><path
         d="m 3980,0.898438 711.953,0 0,1261.599962 -711.953,0 0,-1261.599962 z"
         inkscape:connector-curvature="0"
         id="path24"
         style="fill:#7f7f7f;fill-opacity:1;fill-rule:nonzero;stroke:none" /><path
         d="m 524.211,659.391 -16.828,0 0,-28.731 -30.43,0 0,28.731 -59.84,0 0,23.437 57.848,71.762 32.422,0 0,-72.59 16.828,0 0,-22.609 z M 476.953,682 l 0,44.855 -36.055,-44.855 36.055,0"
         inkscape:connector-curvature="0"
         id="path26"
         style="fill:#ffffff;fill-opacity:1;fill-rule:evenodd;stroke:none" /><path
         d="m 376.668,691.52 -31.113,0 0,32.64 31.113,0 0,-32.64 z m 0,-60.52 -31.113,0 0,32.641 31.113,0 0,-32.641"
         inkscape:connector-curvature="0"
         id="path28"
         style="fill:#ffffff;fill-opacity:1;fill-rule:evenodd;stroke:none" /><path
         d="m 296.332,688.887 c 2.715,-2.325 4.871,-5.032 6.477,-8.125 1.605,-3.094 2.41,-7.215 2.41,-12.352 0,-5.805 -1.149,-11.222 -3.446,-16.25 -2.3,-5.031 -5.828,-9.344 -10.593,-12.933 -4.649,-3.481 -10.114,-6.149 -16.399,-8 -6.281,-1.852 -13.91,-2.778 -22.879,-2.778 -10.242,0 -19.031,0.805 -26.367,2.414 -7.336,1.606 -13.305,3.41 -17.898,5.407 l 0,27.199 3.246,0 c 4.765,-2.899 10.461,-5.41 17.086,-7.528 6.625,-2.121 12.683,-3.183 18.172,-3.183 3.214,0 6.707,0.262 10.476,0.789 3.774,0.523 6.961,1.668 9.563,3.437 2.05,1.379 3.687,3.047 4.906,5.008 1.223,1.957 1.832,4.789 1.832,8.485 0,3.589 -0.832,6.359 -2.496,8.32 -1.664,1.957 -3.86,3.351 -6.578,4.18 -2.719,0.882 -5.992,1.367 -9.824,1.449 -3.829,0.082 -7.379,0.125 -10.657,0.125 l -6.824,0 0,22.097 7.102,0 c 4.347,0 8.191,0.141 11.531,0.414 3.344,0.274 6.183,0.911 8.523,1.903 2.45,1.043 4.289,2.433 5.516,4.168 1.223,1.734 1.836,4.281 1.836,7.64 0,2.477 -0.637,4.473 -1.914,5.985 -1.278,1.515 -2.891,2.715 -4.836,3.594 -2.164,0.992 -4.723,1.652 -7.668,1.984 -2.945,0.328 -5.473,0.496 -7.582,0.496 -5.227,0 -10.891,-0.894 -17.004,-2.676 -6.109,-1.785 -12.027,-4.351 -17.75,-7.695 l -3.086,0 0,26.859 c 4.543,1.832 10.715,3.59 18.523,5.282 7.809,1.691 15.723,2.539 23.75,2.539 7.809,0 14.649,-0.68 20.516,-2.036 5.871,-1.355 10.715,-3.167 14.539,-5.441 4.539,-2.711 7.918,-6.008 10.129,-9.879 2.219,-3.879 3.324,-8.418 3.324,-13.621 0,-6.867 -2.133,-13 -6.398,-18.398 -4.262,-5.399 -9.883,-8.844 -16.863,-10.34 l 0,-1.164 c 2.824,-0.383 5.812,-1.157 8.968,-2.317 3.157,-1.16 6.035,-2.847 8.637,-5.058"
         inkscape:connector-curvature="0"
         id="path30"
         style="fill:#ffffff;fill-opacity:1;fill-rule:nonzero;stroke:none" /><path
         d="m 414.105,461.449 -106.082,0 0,22.442 106.082,0 0,-22.442 z m 0,-43.691 -106.082,0 0,22.441 106.082,0 0,-22.441"
         inkscape:connector-curvature="0"
         id="path32"
         style="fill:#ffffff;fill-opacity:1;fill-rule:evenodd;stroke:none" /><path
         d="m 319.566,161 -82.453,0 0,21.59 26.012,0 0,65.281 -26.012,0 0,20.231 c 3.981,0 7.789,0.234 11.438,0.703 3.644,0.468 6.679,1.285 9.109,2.445 2.871,1.383 5.028,3.18 6.465,5.391 1.434,2.207 2.262,4.972 2.484,8.289 l 27.457,0 0,-102.34 25.5,0 0,-21.59"
         inkscape:connector-curvature="0"
         id="path34"
         style="fill:#ffffff;fill-opacity:1;fill-rule:nonzero;stroke:none" /><path
         d="m 345.418,161 31.1094,0 0,32.6406 -31.1094,0 0,-32.6406 z"
         inkscape:connector-curvature="0"
         id="path36"
         style="fill:#ffffff;fill-opacity:1;fill-rule:nonzero;stroke:none" /><path
         d="m 486.461,218.887 c 2.711,-2.325 4.871,-5.032 6.477,-8.125 1.605,-3.098 2.406,-7.211 2.406,-12.356 0,-5.801 -1.149,-11.218 -3.446,-16.246 -2.296,-5.027 -5.828,-9.34 -10.589,-12.933 -4.649,-3.481 -10.118,-6.149 -16.399,-8 -6.285,-1.852 -13.91,-2.778 -22.883,-2.778 -10.242,0 -19.031,0.805 -26.367,2.414 -7.336,1.606 -13.301,3.41 -17.894,5.407 l 0,27.199 3.242,0 c 4.769,-2.899 10.465,-5.41 17.09,-7.528 6.625,-2.121 12.683,-3.183 18.172,-3.183 3.214,0 6.707,0.265 10.476,0.789 3.77,0.523 6.957,1.668 9.563,3.437 2.05,1.379 3.687,3.047 4.906,5.008 1.219,1.957 1.832,4.789 1.832,8.485 0,3.589 -0.836,6.363 -2.496,8.32 -1.668,1.957 -3.86,3.351 -6.578,4.18 -2.719,0.882 -5.996,1.367 -9.825,1.449 -3.832,0.082 -7.382,0.125 -10.656,0.125 l -6.828,0 0,22.097 7.106,0 c 4.343,0 8.187,0.141 11.531,0.414 3.344,0.274 6.183,0.911 8.523,1.903 2.449,1.043 4.289,2.433 5.512,4.168 1.226,1.734 1.84,4.281 1.84,7.64 0,2.477 -0.641,4.473 -1.918,5.989 -1.278,1.511 -2.887,2.711 -4.832,3.59 -2.168,0.992 -4.723,1.652 -7.668,1.984 -2.946,0.328 -5.473,0.496 -7.582,0.496 -5.227,0 -10.895,-0.894 -17.004,-2.676 -6.113,-1.785 -12.031,-4.351 -17.754,-7.695 l -3.082,0 0,26.863 c 4.539,1.828 10.715,3.59 18.519,5.278 7.809,1.691 15.727,2.539 23.754,2.539 7.809,0 14.645,-0.68 20.516,-2.036 5.871,-1.355 10.715,-3.167 14.535,-5.441 4.543,-2.711 7.918,-6.008 10.133,-9.883 2.215,-3.875 3.32,-8.414 3.32,-13.617 0,-6.867 -2.129,-13 -6.394,-18.398 -4.266,-5.399 -9.887,-8.844 -16.864,-10.34 l 0,-1.16 c 2.821,-0.387 5.813,-1.161 8.965,-2.321 3.157,-1.164 6.035,-2.847 8.641,-5.058"
         inkscape:connector-curvature="0"
         id="path38"
         style="fill:#ffffff;fill-opacity:1;fill-rule:nonzero;stroke:none" /><path
         d="m 1366.26,631 -97.07,0 0,20.395 c 7.41,5.382 14.84,11.089 22.27,17.136 7.44,6.043 13.4,11.258 17.88,15.641 6.7,6.488 11.45,12.144 14.27,16.969 2.82,4.828 4.23,9.593 4.23,14.308 0,5.656 -1.81,10.028 -5.43,13.106 -3.62,3.078 -8.84,4.613 -15.64,4.613 -5.09,0 -10.44,-1.051 -16.06,-3.156 -5.61,-2.106 -10.82,-4.793 -15.64,-8.063 l -2.65,0 0,27.469 c 3.93,1.719 9.72,3.434 17.39,5.148 7.66,1.715 15.34,2.575 23.03,2.575 15.5,0 27.31,-3.258 35.44,-9.77 8.13,-6.512 12.2,-15.726 12.2,-27.644 0,-7.813 -1.95,-15.243 -5.85,-22.282 -3.9,-7.039 -9.86,-14.297 -17.88,-21.781 -5.04,-4.656 -10.1,-8.937 -15.19,-12.848 -5.09,-3.906 -8.72,-6.636 -10.87,-8.187 l 55.57,0 0,-23.629"
         inkscape:connector-curvature="0"
         id="path40"
         style="fill:#ffffff;fill-opacity:1;fill-rule:nonzero;stroke:none" /><path
         d="m 1111.67,691.52 -31.12,0 0,32.64 31.12,0 0,-32.64 z m 0,-60.52 -31.12,0 0,32.641 31.12,0 0,-32.641"
         inkscape:connector-curvature="0"
         id="path42"
         style="fill:#ffffff;fill-opacity:1;fill-rule:evenodd;stroke:none" /><path
         d="m 1029.38,631 -82.45,0 0,21.59 26.008,0 0,65.281 -26.008,0 0,20.227 c 3.976,0 7.785,0.238 11.433,0.707 3.645,0.472 6.68,1.285 9.11,2.445 2.875,1.383 5.027,3.176 6.465,5.391 1.437,2.207 2.265,4.972 2.484,8.289 l 27.458,0 0,-102.34 25.5,0 0,-21.59"
         inkscape:connector-curvature="0"
         id="path44"
         style="fill:#ffffff;fill-opacity:1;fill-rule:nonzero;stroke:none" /><path
         d="m 1209.11,461.449 -106.09,0 0,22.442 106.09,0 0,-22.442 z m 0,-43.691 -106.09,0 0,22.441 106.09,0 0,-22.441"
         inkscape:connector-curvature="0"
         id="path46"
         style="fill:#ffffff;fill-opacity:1;fill-rule:evenodd;stroke:none" /><path
         d="m 946.66,161 -82.449,0 0,21.59 26.008,0 0,65.281 -26.008,0 0,20.231 c 3.977,0 7.789,0.234 11.434,0.703 3.644,0.468 6.683,1.285 9.113,2.445 2.871,1.383 5.023,3.18 6.461,5.391 1.437,2.207 2.265,4.972 2.488,8.289 l 27.453,0 0,-102.34 25.5,0 0,-21.59"
         inkscape:connector-curvature="0"
         id="path48"
         style="fill:#ffffff;fill-opacity:1;fill-rule:nonzero;stroke:none" /><path
         d="m 972.516,161 31.1094,0 0,32.6406 -31.1094,0 0,-32.6406 z"
         inkscape:connector-curvature="0"
         id="path50"
         style="fill:#ffffff;fill-opacity:1;fill-rule:nonzero;stroke:none" /><path
         d="m 1127.37,189.391 -16.83,0 0,-28.731 -30.43,0 0,28.731 -59.84,0 0,23.437 57.85,71.762 32.42,0 0,-72.59 16.83,0 0,-22.609 z m -47.26,22.609 0,44.855 -36.05,-44.855 36.05,0"
         inkscape:connector-curvature="0"
         id="path52"
         style="fill:#ffffff;fill-opacity:1;fill-rule:evenodd;stroke:none" /><path
         d="m 1220.63,161 -82.45,0 0,21.59 26.01,0 0,65.281 -26.01,0 0,20.231 c 3.98,0 7.78,0.234 11.43,0.703 3.65,0.468 6.68,1.285 9.11,2.445 2.88,1.383 5.03,3.18 6.47,5.391 1.43,2.207 2.26,4.972 2.48,8.289 l 27.46,0 0,-102.34 25.5,0 0,-21.59"
         inkscape:connector-curvature="0"
         id="path54"
         style="fill:#ffffff;fill-opacity:1;fill-rule:nonzero;stroke:none" /><path
         d="m 1332.93,189.391 -16.84,0 0,-28.731 -30.43,0 0,28.731 -59.84,0 0,23.437 57.85,71.762 32.42,0 0,-72.59 16.84,0 0,-22.609 z m -47.27,22.609 0,44.855 -36.05,-44.855 36.05,0"
         inkscape:connector-curvature="0"
         id="path56"
         style="fill:#ffffff;fill-opacity:1;fill-rule:evenodd;stroke:none" /><path
         d="m 1346.76,161 31.1094,0 0,32.6406 -31.1094,0 0,-32.6406 z"
         inkscape:connector-curvature="0"
         id="path58"
         style="fill:#ffffff;fill-opacity:1;fill-rule:nonzero;stroke:none" /><path
         d="m 1390.18,161 31.1094,0 0,32.6406 -31.1094,0 0,-32.6406 z"
         inkscape:connector-curvature="0"
         id="path60"
         style="fill:#ffffff;fill-opacity:1;fill-rule:nonzero;stroke:none" /><path
         d="m 1433.6,161 31.1094,0 0,32.6406 -31.1094,0 0,-32.6406 z"
         inkscape:connector-curvature="0"
         id="path62"
         style="fill:#ffffff;fill-opacity:1;fill-rule:nonzero;stroke:none" /><path
         d="m 2111.64,688.887 c 2.72,-2.325 4.88,-5.032 6.48,-8.125 1.61,-3.094 2.41,-7.215 2.41,-12.352 0,-5.805 -1.15,-11.222 -3.44,-16.25 -2.3,-5.031 -5.83,-9.344 -10.59,-12.933 -4.66,-3.481 -10.12,-6.149 -16.41,-8 -6.28,-1.852 -13.91,-2.778 -22.88,-2.778 -10.24,0 -19.03,0.805 -26.36,2.414 -7.34,1.606 -13.3,3.41 -17.9,5.407 l 0,27.199 3.25,0 c 4.76,-2.899 10.46,-5.41 17.09,-7.528 6.62,-2.121 12.67,-3.183 18.16,-3.183 3.22,0 6.71,0.262 10.48,0.789 3.77,0.523 6.96,1.668 9.57,3.437 2.05,1.379 3.68,3.047 4.9,5.008 1.22,1.957 1.83,4.789 1.83,8.485 0,3.589 -0.83,6.359 -2.5,8.32 -1.66,1.957 -3.85,3.351 -6.57,4.18 -2.72,0.882 -6,1.367 -9.82,1.449 -3.84,0.082 -7.39,0.125 -10.66,0.125 l -6.83,0 0,22.097 7.1,0 c 4.35,0 8.19,0.141 11.54,0.414 3.34,0.274 6.18,0.911 8.52,1.903 2.45,1.043 4.29,2.433 5.51,4.168 1.23,1.734 1.84,4.281 1.84,7.64 0,2.477 -0.64,4.473 -1.91,5.985 -1.28,1.515 -2.89,2.715 -4.84,3.594 -2.16,0.992 -4.72,1.652 -7.66,1.984 -2.95,0.328 -5.48,0.496 -7.59,0.496 -5.22,0 -10.89,-0.894 -17,-2.676 -6.11,-1.785 -12.03,-4.351 -17.75,-7.695 l -3.09,0 0,26.859 c 4.54,1.832 10.71,3.59 18.52,5.282 7.81,1.691 15.73,2.539 23.76,2.539 7.81,0 14.64,-0.68 20.51,-2.036 5.87,-1.355 10.71,-3.167 14.54,-5.441 4.54,-2.711 7.92,-6.008 10.13,-9.879 2.22,-3.879 3.32,-8.418 3.32,-13.621 0,-6.867 -2.13,-13 -6.39,-18.398 -4.27,-5.399 -9.89,-8.844 -16.87,-10.34 l 0,-1.164 c 2.82,-0.383 5.81,-1.157 8.97,-2.317 3.15,-1.16 6.03,-2.847 8.63,-5.058"
         inkscape:connector-curvature="0"
         id="path64"
         style="fill:#ffffff;fill-opacity:1;fill-rule:nonzero;stroke:none" /><path
         d="m 1966.67,691.52 -31.12,0 0,32.64 31.12,0 0,-32.64 z m 0,-60.52 -31.12,0 0,32.641 31.12,0 0,-32.641"
         inkscape:connector-curvature="0"
         id="path66"
         style="fill:#ffffff;fill-opacity:1;fill-rule:evenodd;stroke:none" /><path
         d="m 1885.95,631 -97.07,0 0,20.395 c 7.41,5.382 14.83,11.089 22.27,17.136 7.44,6.043 13.4,11.258 17.88,15.641 6.69,6.488 11.45,12.144 14.27,16.969 2.82,4.828 4.23,9.593 4.23,14.308 0,5.656 -1.82,10.028 -5.44,13.106 -3.62,3.078 -8.83,4.613 -15.63,4.613 -5.09,0 -10.44,-1.051 -16.06,-3.156 -5.61,-2.106 -10.83,-4.793 -15.64,-8.063 l -2.65,0 0,27.469 c 3.93,1.719 9.72,3.434 17.39,5.148 7.66,1.715 15.34,2.575 23.03,2.575 15.49,0 27.3,-3.258 35.44,-9.77 8.13,-6.512 12.2,-15.726 12.2,-27.644 0,-7.813 -1.95,-15.243 -5.85,-22.282 -3.9,-7.039 -9.86,-14.297 -17.89,-21.781 -5.03,-4.656 -10.09,-8.937 -15.18,-12.848 -5.09,-3.906 -8.72,-6.636 -10.87,-8.187 l 55.57,0 0,-23.629"
         inkscape:connector-curvature="0"
         id="path68"
         style="fill:#ffffff;fill-opacity:1;fill-rule:nonzero;stroke:none" /><path
         d="m 2004.11,461.449 -106.09,0 0,22.442 106.09,0 0,-22.442 z m 0,-43.691 -106.09,0 0,22.441 106.09,0 0,-22.441"
         inkscape:connector-curvature="0"
         id="path70"
         style="fill:#ffffff;fill-opacity:1;fill-rule:evenodd;stroke:none" /><path
         d="m 1909.57,161 -82.46,0 0,21.59 26.01,0 0,65.281 -26.01,0 0,20.231 c 3.98,0 7.79,0.234 11.44,0.703 3.65,0.468 6.68,1.285 9.11,2.445 2.87,1.383 5.03,3.18 6.46,5.391 1.44,2.207 2.27,4.972 2.49,8.289 l 27.46,0 0,-102.34 25.5,0 0,-21.59"
         inkscape:connector-curvature="0"
         id="path72"
         style="fill:#ffffff;fill-opacity:1;fill-rule:nonzero;stroke:none" /><path
         d="m 1935.42,161 31.1094,0 0,32.6406 -31.1094,0 0,-32.6406 z"
         inkscape:connector-curvature="0"
         id="path74"
         style="fill:#ffffff;fill-opacity:1;fill-rule:nonzero;stroke:none" /><path
         d="m 2086.02,202.875 c 0,-6.422 -1.2,-12.383 -3.61,-17.895 -2.41,-5.507 -5.91,-10.226 -10.51,-14.156 -5.1,-4.211 -10.95,-7.324 -17.58,-9.344 -6.61,-2.019 -14.16,-3.031 -22.64,-3.031 -9.91,0.055 -18.29,0.848 -25.13,2.371 -6.84,1.528 -12.43,3.231 -16.75,5.114 l 0,27.367 3.5,0 c 5.06,-3.012 10.51,-5.524 16.34,-7.531 5.83,-2.004 11.64,-3.012 17.42,-3.012 3.5,0 7.29,0.402 11.38,1.211 4.08,0.801 7.31,2.258 9.7,4.367 1.9,1.723 3.32,3.469 4.3,5.242 0.97,1.777 1.45,4.524 1.45,8.242 0,2.887 -0.65,5.368 -1.96,7.45 -1.31,2.082 -2.99,3.761 -5.04,5.035 -3.01,1.832 -6.62,3.039 -10.85,3.621 -4.23,0.582 -8.07,0.875 -11.52,0.875 -5,0 -9.81,-0.422 -14.4,-1.262 -4.58,-0.84 -8.6,-1.668 -12.05,-2.48 l -3.68,0 0,69.531 88.07,0 0,-23.629 -58.14,0 0,-20.137 c 1.72,0.11 3.89,0.207 6.53,0.293 2.64,0.082 4.95,0.121 6.95,0.121 6.83,0 12.93,-0.648 18.29,-1.949 5.35,-1.301 9.98,-3.113 13.86,-5.437 5.05,-3.047 9,-7.075 11.83,-12.086 2.83,-5.008 4.24,-11.305 4.24,-18.891"
         inkscape:connector-curvature="0"
         id="path76"
         style="fill:#ffffff;fill-opacity:1;fill-rule:nonzero;stroke:none" /><path
         d="m 2797.95,461.449 -106.07,0 0,22.442 106.07,0 0,-22.442 z m 0,-43.691 -106.07,0 0,22.441 106.07,0 0,-22.441"
         inkscape:connector-curvature="0"
         id="path78"
         style="fill:#ffffff;fill-opacity:1;fill-rule:evenodd;stroke:none" /><path
         d="m 2510.61,161 -82.45,0 0,21.59 26.01,0 0,65.281 -26.01,0 0,20.231 c 3.98,0 7.79,0.234 11.44,0.703 3.64,0.468 6.68,1.285 9.11,2.445 2.87,1.383 5.02,3.18 6.46,5.391 1.44,2.207 2.27,4.972 2.49,8.289 l 27.45,0 0,-102.34 25.5,0 0,-21.59"
         inkscape:connector-curvature="0"
         id="path80"
         style="fill:#ffffff;fill-opacity:1;fill-rule:nonzero;stroke:none" /><path
         d="m 2536.47,161 31.1094,0 0,32.6406 -31.1094,0 0,-32.6406 z"
         inkscape:connector-curvature="0"
         id="path82"
         style="fill:#ffffff;fill-opacity:1;fill-rule:nonzero;stroke:none" /><path
         d="m 2689.45,203.152 c 0,-6.371 -1.16,-12.351 -3.49,-17.949 -2.32,-5.594 -5.58,-10.301 -9.79,-14.121 -4.49,-4.102 -9.68,-7.23 -15.58,-9.391 -5.89,-2.16 -12.8,-3.242 -20.71,-3.242 -7.42,0 -14.19,1.012 -20.31,3.031 -6.12,2.02 -11.36,5.106 -15.74,9.258 -5.04,4.758 -8.88,10.903 -11.54,18.43 -2.66,7.527 -3.99,16.52 -3.99,26.984 0,10.848 1.25,20.477 3.74,28.891 2.49,8.414 6.55,15.859 12.19,22.336 5.43,6.199 12.47,11.012 21.12,14.441 8.66,3.434 18.96,5.149 30.91,5.149 4.04,0 8.46,-0.274 13.28,-0.828 4.81,-0.551 7.94,-0.965 9.37,-1.243 l 0,-24.277 -3.14,0 c -1.5,0.703 -4.02,1.504 -7.58,2.399 -3.57,0.894 -7.61,1.339 -12.14,1.339 -10.6,0 -18.86,-2.593 -24.77,-7.781 -5.9,-5.187 -9.47,-12.414 -10.69,-21.687 4.27,2.55 8.76,4.613 13.49,6.191 4.73,1.578 9.83,2.367 15.3,2.367 4.82,0 9.28,-0.554 13.4,-1.66 4.12,-1.109 7.95,-2.879 11.49,-5.32 4.59,-3.211 8.27,-7.531 11.03,-12.961 2.77,-5.43 4.15,-12.215 4.15,-20.356 z m -37.76,-18.64 c 1.71,1.879 3.08,4.105 4.1,6.679 1.02,2.575 1.53,6.075 1.53,10.5 0,4.039 -0.58,7.344 -1.74,9.918 -1.16,2.575 -2.76,4.633 -4.81,6.184 -1.98,1.551 -4.33,2.613 -7.04,3.195 -2.71,0.582 -5.5,0.871 -8.37,0.871 -2.44,0 -4.98,-0.277 -7.63,-0.828 -2.66,-0.554 -5.09,-1.246 -7.3,-2.078 0,-0.551 -0.03,-1.465 -0.08,-2.738 -0.06,-1.27 -0.09,-2.875 -0.09,-4.813 0,-6.808 0.68,-12.41 2.03,-16.808 1.36,-4.399 3.17,-7.758 5.44,-10.082 1.54,-1.715 3.37,-2.977 5.47,-3.778 2.1,-0.804 4.36,-1.203 6.8,-1.203 1.82,0 3.84,0.414 6.05,1.242 2.21,0.832 4.09,2.079 5.64,3.739"
         inkscape:connector-curvature="0"
         id="path84"
         style="fill:#ffffff;fill-opacity:1;fill-rule:evenodd;stroke:none" /><path
         d="m 2802.54,161 -82.45,0 0,21.59 26.01,0 0,65.281 -26.01,0 0,20.231 c 3.98,0 7.79,0.234 11.43,0.703 3.65,0.468 6.69,1.285 9.11,2.445 2.88,1.383 5.03,3.18 6.47,5.391 1.44,2.207 2.26,4.972 2.48,8.289 l 27.46,0 0,-102.34 25.5,0 0,-21.59"
         inkscape:connector-curvature="0"
         id="path86"
         style="fill:#ffffff;fill-opacity:1;fill-rule:nonzero;stroke:none" /><path
         d="m 2931.43,195.5 c 0,-10.965 -4.66,-19.941 -14,-26.922 -9.34,-6.976 -22.15,-10.469 -38.44,-10.469 -9.14,0 -16.98,0.942 -23.52,2.825 -6.54,1.882 -11.94,4.488 -16.2,7.812 -4.22,3.27 -7.33,7.09 -9.35,11.469 -2.03,4.375 -3.04,9.082 -3.04,14.125 0,6.203 1.82,11.699 5.46,16.492 3.63,4.793 9.91,8.988 18.85,12.586 l 0,0.5 c -7.19,3.324 -12.47,7.504 -15.85,12.547 -3.37,5.039 -5.06,10.883 -5.06,17.531 0,9.805 4.54,17.836 13.61,24.094 9.07,6.262 20.89,9.39 35.44,9.39 15.26,0 27.23,-2.839 35.88,-8.515 8.67,-5.68 12.99,-13.258 12.99,-22.727 0,-5.871 -1.82,-11.105 -5.45,-15.703 -3.64,-4.597 -9.21,-8.504 -16.7,-11.715 l 0,-0.5 c 8.62,-3.269 15.01,-7.672 19.16,-13.211 4.15,-5.539 6.22,-12.078 6.22,-19.609 z m -34.16,57.133 c 0,4.203 -1.63,7.547 -4.88,10.035 -3.24,2.488 -7.55,3.73 -12.93,3.73 -2,0 -4.03,-0.246 -6.12,-0.746 -2.07,-0.496 -3.97,-1.214 -5.7,-2.156 -1.6,-0.937 -2.93,-2.172 -3.99,-3.691 -1.05,-1.52 -1.58,-3.246 -1.58,-5.184 0,-3.262 0.93,-5.805 2.78,-7.629 1.85,-1.824 4.88,-3.648 9.09,-5.472 1.55,-0.665 3.66,-1.477 6.35,-2.446 2.68,-0.969 5.92,-2.058 9.74,-3.277 2.58,2.984 4.43,5.668 5.55,8.047 1.12,2.375 1.69,5.304 1.69,8.789 z m 2.37,-58.559 c 0,3.992 -0.99,7.012 -2.98,9.063 -2,2.051 -6.09,4.406 -12.28,7.066 -1.83,0.832 -4.49,1.856 -7.97,3.074 -3.48,1.219 -6.41,2.274 -8.79,3.161 -2.38,-2.161 -4.52,-4.782 -6.42,-7.856 -1.91,-3.074 -2.87,-6.527 -2.87,-10.348 0,-5.765 2.06,-10.351 6.18,-13.761 4.12,-3.407 9.5,-5.114 16.14,-5.114 1.77,0 3.84,0.262 6.22,0.789 2.38,0.528 4.42,1.348 6.14,2.454 1.99,1.273 3.59,2.773 4.81,4.488 1.22,1.719 1.82,4.047 1.82,6.984"
         inkscape:connector-curvature="0"
         id="path88"
         style="fill:#ffffff;fill-opacity:1;fill-rule:evenodd;stroke:none" /><path
         d="m 3698.98,672.875 c 0,-6.418 -1.2,-12.387 -3.61,-17.895 -2.41,-5.507 -5.91,-10.226 -10.51,-14.156 -5.09,-4.211 -10.95,-7.324 -17.57,-9.344 -6.63,-2.019 -14.17,-3.031 -22.65,-3.031 -9.91,0.055 -18.29,0.848 -25.13,2.371 -6.84,1.528 -12.42,3.231 -16.74,5.118 l 0,27.363 3.5,0 c 5.05,-3.012 10.5,-5.524 16.33,-7.531 5.84,-2.008 11.64,-3.012 17.42,-3.012 3.5,0 7.29,0.406 11.37,1.207 4.09,0.805 7.32,2.265 9.72,4.371 1.88,1.723 3.32,3.469 4.28,5.242 0.98,1.777 1.47,4.527 1.47,8.242 0,2.887 -0.66,5.368 -1.97,7.45 -1.3,2.082 -2.99,3.757 -5.04,5.035 -3.01,1.832 -6.62,3.039 -10.85,3.621 -4.23,0.582 -8.07,0.875 -11.52,0.875 -5.01,0 -9.8,-0.422 -14.39,-1.262 -4.59,-0.84 -8.61,-1.668 -12.06,-2.48 l -3.67,0 0,69.531 88.05,0 0,-23.629 -58.14,0 0,-20.137 c 1.73,0.114 3.91,0.207 6.54,0.289 2.64,0.086 4.96,0.125 6.96,0.125 6.83,0 12.92,-0.648 18.27,-1.949 5.36,-1.301 9.98,-3.113 13.87,-5.437 5.05,-3.047 9,-7.075 11.83,-12.086 2.83,-5.008 4.24,-11.305 4.24,-18.891"
         inkscape:connector-curvature="0"
         id="path90"
         style="fill:#ffffff;fill-opacity:1;fill-rule:nonzero;stroke:none" /><path
         d="m 3553.19,691.52 -31.11,0 0,32.64 31.11,0 0,-32.64 z m 0,-60.52 -31.11,0 0,32.641 31.11,0 0,-32.641"
         inkscape:connector-curvature="0"
         id="path92"
         style="fill:#ffffff;fill-opacity:1;fill-rule:evenodd;stroke:none" /><path
         d="m 3465.36,688.887 c 2.71,-2.325 4.87,-5.032 6.48,-8.125 1.6,-3.094 2.4,-7.215 2.4,-12.352 0,-5.805 -1.15,-11.222 -3.45,-16.25 -2.29,-5.031 -5.83,-9.344 -10.58,-12.933 -4.66,-3.481 -10.12,-6.149 -16.41,-8 -6.28,-1.852 -13.91,-2.778 -22.88,-2.778 -10.24,0 -19.03,0.805 -26.36,2.414 -7.34,1.606 -13.31,3.41 -17.9,5.407 l 0,27.199 3.25,0 c 4.76,-2.899 10.46,-5.41 17.08,-7.528 6.63,-2.121 12.69,-3.183 18.17,-3.183 3.22,0 6.72,0.262 10.48,0.789 3.77,0.523 6.96,1.668 9.57,3.437 2.05,1.379 3.68,3.047 4.9,5.008 1.22,1.957 1.83,4.789 1.83,8.485 0,3.589 -0.83,6.359 -2.49,8.32 -1.67,1.957 -3.86,3.351 -6.58,4.18 -2.72,0.882 -5.99,1.367 -9.83,1.449 -3.83,0.082 -7.38,0.125 -10.65,0.125 l -6.83,0 0,22.097 7.1,0 c 4.35,0 8.19,0.141 11.54,0.414 3.34,0.274 6.18,0.911 8.52,1.903 2.45,1.043 4.29,2.433 5.51,4.168 1.23,1.734 1.84,4.281 1.84,7.64 0,2.477 -0.64,4.473 -1.91,5.985 -1.28,1.515 -2.89,2.715 -4.84,3.594 -2.17,0.992 -4.72,1.652 -7.67,1.984 -2.94,0.328 -5.47,0.496 -7.58,0.496 -5.23,0 -10.89,-0.894 -17,-2.676 -6.11,-1.785 -12.03,-4.351 -17.76,-7.695 l -3.08,0 0,26.859 c 4.54,1.832 10.72,3.59 18.52,5.282 7.81,1.691 15.73,2.539 23.75,2.539 7.81,0 14.65,-0.68 20.52,-2.036 5.87,-1.355 10.71,-3.167 14.54,-5.441 4.54,-2.711 7.91,-6.008 10.13,-9.879 2.21,-3.879 3.32,-8.418 3.32,-13.621 0,-6.867 -2.13,-13 -6.4,-18.398 -4.26,-5.399 -9.88,-8.844 -16.86,-10.34 l 0,-1.164 c 2.82,-0.383 5.81,-1.157 8.97,-2.317 3.16,-1.16 6.03,-2.847 8.64,-5.058"
         inkscape:connector-curvature="0"
         id="path94"
         style="fill:#ffffff;fill-opacity:1;fill-rule:nonzero;stroke:none" /><path
         d="m 3590.63,461.449 -106.08,0 0,22.442 106.08,0 0,-22.442 z m 0,-43.691 -106.08,0 0,22.441 106.08,0 0,-22.441"
         inkscape:connector-curvature="0"
         id="path96"
         style="fill:#ffffff;fill-opacity:1;fill-rule:evenodd;stroke:none" /><path
         d="m 3496.09,161 -82.45,0 0,21.59 26.01,0 0,65.281 -26.01,0 0,20.231 c 3.98,0 7.79,0.234 11.43,0.703 3.64,0.468 6.68,1.285 9.11,2.445 2.87,1.383 5.03,3.18 6.47,5.391 1.43,2.207 2.26,4.972 2.48,8.289 l 27.46,0 0,-102.34 25.5,0 0,-21.59"
         inkscape:connector-curvature="0"
         id="path98"
         style="fill:#ffffff;fill-opacity:1;fill-rule:nonzero;stroke:none" /><path
         d="m 3521.94,161 31.1094,0 0,32.6406 -31.1094,0 0,-32.6406 z"
         inkscape:connector-curvature="0"
         id="path100"
         style="fill:#ffffff;fill-opacity:1;fill-rule:nonzero;stroke:none" /><path
         d="m 3674.93,203.152 c 0,-6.371 -1.16,-12.351 -3.49,-17.949 -2.32,-5.594 -5.59,-10.301 -9.8,-14.121 -4.48,-4.102 -9.68,-7.23 -15.57,-9.391 -5.89,-2.16 -12.8,-3.242 -20.72,-3.242 -7.42,0 -14.19,1.012 -20.31,3.031 -6.11,2.02 -11.36,5.106 -15.73,9.258 -5.04,4.758 -8.89,10.903 -11.54,18.43 -2.66,7.527 -3.99,16.52 -3.99,26.984 0,10.848 1.24,20.477 3.73,28.891 2.49,8.414 6.56,15.859 12.2,22.336 5.42,6.199 12.46,11.012 21.12,14.441 8.65,3.434 18.96,5.149 30.91,5.149 4.03,0 8.46,-0.274 13.27,-0.828 4.81,-0.551 7.94,-0.965 9.38,-1.243 l 0,-24.277 -3.15,0 c -1.49,0.703 -4.01,1.504 -7.58,2.399 -3.56,0.894 -7.61,1.339 -12.13,1.339 -10.61,0 -18.86,-2.593 -24.77,-7.781 -5.91,-5.187 -9.47,-12.414 -10.69,-21.687 4.26,2.55 8.75,4.613 13.48,6.191 4.73,1.578 9.83,2.367 15.31,2.367 4.81,0 9.28,-0.554 13.4,-1.66 4.12,-1.109 7.95,-2.879 11.49,-5.32 4.59,-3.211 8.27,-7.531 11.03,-12.961 2.77,-5.43 4.15,-12.215 4.15,-20.356 z m -37.77,-18.64 c 1.72,1.879 3.08,4.105 4.11,6.679 1.02,2.575 1.53,6.075 1.53,10.5 0,4.039 -0.58,7.344 -1.74,9.918 -1.17,2.575 -2.77,4.633 -4.81,6.184 -1.99,1.551 -4.34,2.613 -7.05,3.195 -2.7,0.582 -5.5,0.871 -8.37,0.871 -2.43,0 -4.98,-0.277 -7.63,-0.828 -2.65,-0.554 -5.09,-1.246 -7.3,-2.078 0,-0.551 -0.02,-1.465 -0.08,-2.738 -0.05,-1.27 -0.08,-2.875 -0.08,-4.813 0,-6.808 0.68,-12.41 2.03,-16.808 1.35,-4.399 3.16,-7.758 5.43,-10.082 1.55,-1.715 3.37,-2.977 5.47,-3.778 2.1,-0.804 4.37,-1.203 6.8,-1.203 1.83,0 3.85,0.414 6.05,1.242 2.21,0.832 4.09,2.079 5.64,3.739"
         inkscape:connector-curvature="0"
         id="path102"
         style="fill:#ffffff;fill-opacity:1;fill-rule:evenodd;stroke:none" /><path
         d="m 4458.85,631 -82.45,0 0,21.59 26.01,0 0,65.281 -26.01,0 0,20.227 c 3.98,0 7.79,0.238 11.44,0.707 3.64,0.472 6.68,1.285 9.11,2.445 2.87,1.383 5.02,3.176 6.46,5.391 1.44,2.207 2.27,4.972 2.49,8.289 l 27.45,0 0,-102.34 25.5,0 0,-21.59"
         inkscape:connector-curvature="0"
         id="path104"
         style="fill:#ffffff;fill-opacity:1;fill-rule:nonzero;stroke:none" /><path
         d="m 4569.28,673.152 c 0,-6.371 -1.16,-12.351 -3.49,-17.945 -2.33,-5.598 -5.59,-10.305 -9.8,-14.129 -4.49,-4.098 -9.68,-7.226 -15.57,-9.387 -5.9,-2.16 -12.8,-3.242 -20.72,-3.242 -7.42,0 -14.19,1.012 -20.31,3.031 -6.11,2.02 -11.36,5.106 -15.73,9.258 -5.04,4.762 -8.89,10.903 -11.55,18.43 -2.65,7.527 -3.98,16.52 -3.98,26.984 0,10.848 1.25,20.481 3.73,28.891 2.49,8.414 6.56,15.859 12.2,22.336 5.42,6.195 12.46,11.012 21.12,14.441 8.65,3.434 18.96,5.153 30.91,5.153 4.03,0 8.46,-0.282 13.27,-0.832 4.82,-0.551 7.94,-0.965 9.38,-1.243 l 0,-24.277 -3.15,0 c -1.49,0.703 -4.02,1.504 -7.58,2.399 -3.56,0.89 -7.61,1.339 -12.13,1.339 -10.61,0 -18.86,-2.593 -24.77,-7.781 -5.91,-5.187 -9.48,-12.418 -10.69,-21.687 4.26,2.55 8.75,4.613 13.48,6.191 4.73,1.578 9.83,2.367 15.31,2.367 4.81,0 9.27,-0.554 13.4,-1.66 4.12,-1.105 7.95,-2.883 11.48,-5.32 4.6,-3.211 8.27,-7.531 11.04,-12.961 2.76,-5.43 4.15,-12.215 4.15,-20.356 z m -37.77,-18.64 c 1.71,1.879 3.08,4.105 4.1,6.679 1.03,2.571 1.54,6.075 1.54,10.5 0,4.039 -0.58,7.344 -1.74,9.918 -1.16,2.575 -2.77,4.633 -4.81,6.184 -1.99,1.547 -4.34,2.617 -7.05,3.195 -2.71,0.582 -5.5,0.871 -8.37,0.871 -2.43,0 -4.98,-0.277 -7.63,-0.832 -2.66,-0.55 -5.09,-1.242 -7.3,-2.074 0,-0.551 -0.02,-1.465 -0.08,-2.738 -0.05,-1.27 -0.08,-2.875 -0.08,-4.813 0,-6.808 0.68,-12.41 2.03,-16.808 1.35,-4.399 3.17,-7.758 5.43,-10.082 1.55,-1.719 3.37,-2.977 5.47,-3.778 2.1,-0.804 4.37,-1.203 6.8,-1.203 1.82,0 3.84,0.414 6.06,1.242 2.21,0.832 4.08,2.079 5.63,3.739"
         inkscape:connector-curvature="0"
         id="path106"
         style="fill:#ffffff;fill-opacity:1;fill-rule:evenodd;stroke:none" /><path
         d="m 4323.61,691.52 -31.12,0 0,32.64 31.12,0 0,-32.64 z m 0,-60.52 -31.12,0 0,32.641 31.12,0 0,-32.641"
         inkscape:connector-curvature="0"
         id="path108"
         style="fill:#ffffff;fill-opacity:1;fill-rule:evenodd;stroke:none" /><path
         d="m 4250.33,699.695 c 0,-10.363 -1.32,-20.007 -3.98,-28.929 -2.65,-8.926 -6.69,-16.434 -12.12,-22.532 -5.86,-6.593 -13.13,-11.543 -21.82,-14.836 -8.69,-3.3 -18.81,-4.949 -30.37,-4.949 -4.09,0 -8.52,0.25 -13.28,0.75 -4.76,0.492 -7.88,0.938 -9.38,1.321 l 0,24.281 3.33,0 c 1.65,-0.762 4.02,-1.574 7.09,-2.442 3.07,-0.867 7.26,-1.3 12.57,-1.3 4.31,0 8.54,0.543 12.69,1.625 4.15,1.082 7.72,2.789 10.71,5.121 3.26,2.496 5.94,5.617 8.05,9.363 2.1,3.746 3.51,8.258 4.23,13.527 -4.82,-2.765 -9.3,-4.886 -13.42,-6.355 -4.12,-1.465 -9.26,-2.199 -15.41,-2.199 -4.65,0 -9.09,0.566 -13.33,1.703 -4.24,1.136 -8.1,2.894 -11.59,5.277 -4.59,3.266 -8.26,7.57 -11,12.918 -2.75,5.344 -4.12,12.09 -4.12,20.234 0,13.239 4.61,24.028 13.83,32.36 9.22,8.34 21.3,12.508 36.25,12.508 7.7,0 14.52,-1.012 20.47,-3.036 5.95,-2.023 11.09,-5.113 15.41,-9.269 5.04,-4.766 8.83,-10.836 11.38,-18.207 2.54,-7.371 3.81,-16.352 3.81,-26.934 z m -31.79,4.66 c 0,6.75 -0.65,12.297 -1.95,16.641 -1.3,4.344 -3.09,7.707 -5.36,10.082 -1.61,1.774 -3.46,3.043 -5.57,3.82 -2.1,0.774 -4.32,1.161 -6.64,1.161 -2.16,0 -4.23,-0.371 -6.2,-1.118 -1.96,-0.75 -3.86,-2.039 -5.69,-3.863 -1.72,-1.769 -3.11,-4.094 -4.2,-6.973 -1.07,-2.875 -1.62,-6.304 -1.62,-10.289 0,-3.875 0.58,-7.125 1.75,-9.754 1.16,-2.628 2.77,-4.714 4.82,-6.265 1.94,-1.496 4.23,-2.547 6.85,-3.156 2.64,-0.606 5.5,-0.911 8.61,-0.911 2.49,0 5.21,0.317 8.14,0.958 2.94,0.632 5.21,1.285 6.81,1.949 0,0.605 0.05,1.476 0.13,2.613 0.08,1.133 0.12,2.836 0.12,5.105"
         inkscape:connector-curvature="0"
         id="path110"
         style="fill:#ffffff;fill-opacity:1;fill-rule:evenodd;stroke:none" /><path
         d="m 4392.15,461.449 -106.08,0 0,22.442 106.08,0 0,-22.442 z m 0,-43.691 -106.08,0 0,22.441 106.08,0 0,-22.441"
         inkscape:connector-curvature="0"
         id="path112"
         style="fill:#ffffff;fill-opacity:1;fill-rule:evenodd;stroke:none" /><path
         d="m 4297.61,161 -82.45,0 0,21.59 26.01,0 0,65.281 -26.01,0 0,20.231 c 3.98,0 7.79,0.234 11.44,0.703 3.64,0.468 6.68,1.285 9.11,2.445 2.87,1.383 5.02,3.18 6.46,5.391 1.44,2.207 2.27,4.972 2.49,8.289 l 27.45,0 0,-102.34 25.5,0 0,-21.59"
         inkscape:connector-curvature="0"
         id="path114"
         style="fill:#ffffff;fill-opacity:1;fill-rule:nonzero;stroke:none" /><path
         d="m 4323.47,161 31.1055,0 0,32.6406 -31.1055,0 0,-32.6406 z"
         inkscape:connector-curvature="0"
         id="path116"
         style="fill:#ffffff;fill-opacity:1;fill-rule:nonzero;stroke:none" /><path
         d="M 4474.07,260.047 4418.2,161 l -35.59,0 58.01,99.961 -63.45,0 0,23.629 96.9,0 0,-24.543"
         inkscape:connector-curvature="0"
         id="path118"
         style="fill:#ffffff;fill-opacity:1;fill-rule:nonzero;stroke:none" /><path
         d="m 383.098,306.762 123.59,0 0,17.6758 -123.59,0 0,-17.6758 z"
         inkscape:connector-curvature="0"
         id="path120"
         style="fill:#ffffff;fill-opacity:1;fill-rule:nonzero;stroke:none" /><path
         d="m 4363.1,306.762 123.59,0 0,17.6758 -123.59,0 0,-17.6758 z"
         inkscape:connector-curvature="0"
         id="path122"
         style="fill:#ffffff;fill-opacity:1;fill-rule:nonzero;stroke:none" /><path
         d="m 3563.1,306.762 123.59,0 0,17.6758 -123.59,0 0,-17.6758 z"
         inkscape:connector-curvature="0"
         id="path124"
         style="fill:#ffffff;fill-opacity:1;fill-rule:nonzero;stroke:none" /><path
         d="m 1202.8,622.5 -32.25,92.25 -17.66,-8.281 -3.95,7.789 38.56,18.242 25.55,-73.652 31.95,150.468 122.5,0.059 0,-22.5 -106.51,0 -38.17,-164.375 -20.02,0"
         inkscape:connector-curvature="0"
         id="path126"
         style="fill:#ffffff;fill-opacity:1;fill-rule:nonzero;stroke:none" /><path
         d="m 2772.38,689.523 -31.11,0 0,32.641 31.11,0 0,-32.641 z m 0,-60.519 -31.11,0 0,32.641 31.11,0 0,-32.641"
         inkscape:connector-curvature="0"
         id="path128"
         style="fill:#ffffff;fill-opacity:1;fill-rule:evenodd;stroke:none" /><path
         d="m 2682.11,629.004 -82.45,0 0,21.586 26.01,0 0,65.281 -26.01,0 0,20.231 c 3.98,0 7.79,0.238 11.43,0.707 3.65,0.468 6.69,1.281 9.12,2.445 2.87,1.379 5.02,3.176 6.46,5.387 1.44,2.211 2.26,4.972 2.49,8.293 l 27.45,0 0,-102.344 25.5,0 0,-21.586"
         inkscape:connector-curvature="0"
         id="path130"
         style="fill:#ffffff;fill-opacity:1;fill-rule:nonzero;stroke:none" /><path
         d="m 2938.5,690.754 c 0,-19.692 -5.64,-35.332 -16.94,-46.922 -8.65,-8.863 -19.81,-14.336 -33.51,-16.418 l 0,-18.379 -24.14,0 0,18.039 c -14.81,1.774 -26.8,7.36 -35.96,16.758 -11.3,11.59 -16.95,27.23 -16.95,46.922 0,19.859 5.65,35.555 16.95,47.09 9.16,9.355 21.15,14.914 35.96,16.679 l 0,16.18 24.14,0 0,-16.527 c 13.61,-2.082 24.75,-7.524 33.43,-16.332 11.35,-11.535 17.02,-27.231 17.02,-47.09 z m -74.59,39.148 c -4.11,-1.648 -7.39,-4.027 -10.37,-7.351 -2.77,-3.098 -5.03,-7.371 -6.77,-12.824 -1.75,-5.45 -2.62,-11.774 -2.62,-18.973 0,-7.359 0.85,-13.629 2.53,-18.801 1.69,-5.176 3.92,-9.394 6.69,-12.664 2.77,-3.266 6.01,-5.672 9.72,-7.223 l 0.82,77.836 z m 32.3,-70.445 c 3.11,3.766 5.41,8.203 6.9,13.324 1.5,5.121 2.24,11.141 2.24,18.059 0,7.418 -0.86,13.726 -2.57,18.93 -1.72,5.203 -3.96,9.41 -6.73,12.617 -2.37,2.785 -5.03,4.925 -8,6.425 l 0,-75.98 c 3.07,1.566 5.79,3.773 8.16,6.625"
         inkscape:connector-curvature="0"
         id="path132"
         style="fill:#ffffff;fill-opacity:1;fill-rule:nonzero;stroke:none" /><path
         d="m 2951.76,161 31.1094,0 0,32.6406 -31.1094,0 0,-32.6406 z"
         inkscape:connector-curvature="0"
         id="path134"
         style="fill:#ffffff;fill-opacity:1;fill-rule:nonzero;stroke:none" /><path
         d="m 2995.18,161 31.1094,0 0,32.6406 -31.1094,0 0,-32.6406 z"
         inkscape:connector-curvature="0"
         id="path136"
         style="fill:#ffffff;fill-opacity:1;fill-rule:nonzero;stroke:none" /><path
         d="m 3038.6,161 31.1094,0 0,32.6406 -31.1094,0 0,-32.6406 z"
         inkscape:connector-curvature="0"
         id="path138"
         style="fill:#ffffff;fill-opacity:1;fill-rule:nonzero;stroke:none" /></g></g></svg>